<?xml version="1.0" encoding="UTF-8" standalone="no"?>
<!DOCTYPE svg PUBLIC "-//W3C//DTD SVG 1.1//EN"
 "http://www.w3.org/Graphics/SVG/1.1/DTD/svg11.dtd">
<!-- Generated by graphviz version 2.40.1 (20161225.0304)
 -->
<!-- Title: dependencies Pages: 1 -->
<svg width="1286pt" height="284pt"
 viewBox="0.00 0.00 1286.00 284.00" xmlns="http://www.w3.org/2000/svg" xmlns:xlink="http://www.w3.org/1999/xlink">
<g id="graph0" class="graph" transform="scale(1 1) rotate(0) translate(4 280)">
<title>dependencies</title>
<polygon fill="#ffffff" stroke="transparent" points="-4,4 -4,-280 1282,-280 1282,4 -4,4"/>
<text text-anchor="start" x="618.0091" y="-42.4" font-family="sans-serif" font-weight="bold" font-size="14.00" fill="#000000">Legend</text>
<polygon fill="#ffffb3" stroke="transparent" points="405,-10 405,-30 425,-30 425,-10 405,-10"/>
<text text-anchor="start" x="428.629" y="-15.4" font-family="sans-serif" font-size="14.00" fill="#000000"> &#160;Declarations</text>
<polygon fill="#8dd3c7" stroke="transparent" points="518,-10 518,-30 538,-30 538,-10 518,-10"/>
<text text-anchor="start" x="541.7251" y="-15.4" font-family="sans-serif" font-size="14.00" fill="#000000"> &#160;Module</text>
<polygon fill="#80b1d3" stroke="transparent" points="604,-10 604,-30 624,-30 624,-10 604,-10"/>
<text text-anchor="start" x="627.7812" y="-15.4" font-family="sans-serif" font-size="14.00" fill="#000000"> &#160;Bootstrap</text>
<polygon fill="#fdb462" stroke="transparent" points="701,-10 701,-30 721,-30 721,-10 701,-10"/>
<text text-anchor="start" x="724.6732" y="-15.4" font-family="sans-serif" font-size="14.00" fill="#000000"> &#160;Providers</text>
<polygon fill="#fb8072" stroke="transparent" points="797,-10 797,-30 817,-30 817,-10 797,-10"/>
<text text-anchor="start" x="820.7258" y="-15.4" font-family="sans-serif" font-size="14.00" fill="#000000"> &#160;Exports</text>
<g id="clust1" class="cluster">
<title>cluster_NgFbSortableTableModule</title>
<polygon fill="none" stroke="#000000" stroke-dasharray="1,5" points="8,-70 8,-268 1270,-268 1270,-70 8,-70"/>
</g>
<g id="clust3" class="cluster">
<title>cluster_NgFbSortableTableModule_imports</title>
<polygon fill="none" stroke="#000000" points="16,-78 16,-130 1262,-130 1262,-78 16,-78"/>
</g>
<g id="clust4" class="cluster">
<title>cluster_NgFbSortableTableModule_exports</title>
<polygon fill="none" stroke="#000000" points="211,-208 211,-260 1128,-260 1128,-208 211,-208"/>
</g>
<!-- MdProgressBarModule -->
<g id="node1" class="node">
<title>MdProgressBarModule</title>
<polygon fill="#8dd3c7" stroke="#000000" points="1253.9144,-122 1250.9144,-126 1229.9144,-126 1226.9144,-122 1106.0856,-122 1106.0856,-86 1253.9144,-86 1253.9144,-122"/>
<text text-anchor="middle" x="1180" y="-99.8" font-family="Times,serif" font-size="14.00" fill="#000000">MdProgressBarModule</text>
</g>
<!-- NgFbSortableTableModule -->
<g id="node10" class="node">
<title>NgFbSortableTableModule</title>
<polygon fill="#8dd3c7" stroke="#000000" points="728.965,-187 725.965,-191 704.965,-191 701.965,-187 559.035,-187 559.035,-151 728.965,-151 728.965,-187"/>
<text text-anchor="middle" x="644" y="-164.8" font-family="Times,serif" font-size="14.00" fill="#000000">NgFbSortableTableModule</text>
</g>
<!-- MdProgressBarModule&#45;&gt;NgFbSortableTableModule -->
<g id="edge1" class="edge">
<title>MdProgressBarModule&#45;&gt;NgFbSortableTableModule</title>
<path fill="none" stroke="#000000" d="M1112.9862,-122.1061C1112.9862,-141.3391 1112.9862,-169 1112.9862,-169 1112.9862,-169 739.2018,-169 739.2018,-169"/>
<polygon fill="#000000" stroke="#000000" points="739.2018,-165.5001 729.2018,-169 739.2017,-172.5001 739.2018,-165.5001"/>
</g>
<!-- MdDialogModule -->
<g id="node2" class="node">
<title>MdDialogModule</title>
<polygon fill="#8dd3c7" stroke="#000000" points="1088.5968,-122 1085.5968,-126 1064.5968,-126 1061.5968,-122 971.4032,-122 971.4032,-86 1088.5968,-86 1088.5968,-122"/>
<text text-anchor="middle" x="1030" y="-99.8" font-family="Times,serif" font-size="14.00" fill="#000000">MdDialogModule</text>
</g>
<!-- MdDialogModule&#45;&gt;NgFbSortableTableModule -->
<g id="edge2" class="edge">
<title>MdDialogModule&#45;&gt;NgFbSortableTableModule</title>
<path fill="none" stroke="#000000" d="M1030,-122.0225C1030,-139.3734 1030,-163 1030,-163 1030,-163 739.1872,-163 739.1872,-163"/>
<polygon fill="#000000" stroke="#000000" points="739.1872,-159.5001 729.1872,-163 739.1872,-166.5001 739.1872,-159.5001"/>
</g>
<!-- MdSelectModule -->
<g id="node3" class="node">
<title>MdSelectModule</title>
<polygon fill="#8dd3c7" stroke="#000000" points="953.7022,-122 950.7022,-126 929.7022,-126 926.7022,-122 840.2978,-122 840.2978,-86 953.7022,-86 953.7022,-122"/>
<text text-anchor="middle" x="897" y="-99.8" font-family="Times,serif" font-size="14.00" fill="#000000">MdSelectModule</text>
</g>
<!-- MdSelectModule&#45;&gt;NgFbSortableTableModule -->
<g id="edge3" class="edge">
<title>MdSelectModule&#45;&gt;NgFbSortableTableModule</title>
<path fill="none" stroke="#000000" d="M889.5721,-122.2396C889.5721,-137.5706 889.5721,-157 889.5721,-157 889.5721,-157 739.2,-157 739.2,-157"/>
<polygon fill="#000000" stroke="#000000" points="739.2,-153.5001 729.2,-157 739.2,-160.5001 739.2,-153.5001"/>
</g>
<!-- MdInputModule -->
<g id="node4" class="node">
<title>MdInputModule</title>
<polygon fill="#8dd3c7" stroke="#000000" points="822.0465,-122 819.0465,-126 798.0465,-126 795.0465,-122 713.9535,-122 713.9535,-86 822.0465,-86 822.0465,-122"/>
<text text-anchor="middle" x="768" y="-99.8" font-family="Times,serif" font-size="14.00" fill="#000000">MdInputModule</text>
</g>
<!-- MdInputModule&#45;&gt;NgFbSortableTableModule -->
<g id="edge4" class="edge">
<title>MdInputModule&#45;&gt;NgFbSortableTableModule</title>
<path fill="none" stroke="#000000" d="M721.3548,-122.1061C721.3548,-122.1061 721.3548,-140.991 721.3548,-140.991"/>
<polygon fill="#000000" stroke="#000000" points="717.8549,-140.9909 721.3548,-150.991 724.8549,-140.991 717.8549,-140.9909"/>
</g>
<!-- MdIconModule -->
<g id="node5" class="node">
<title>MdIconModule</title>
<polygon fill="#8dd3c7" stroke="#000000" points="695.8697,-122 692.8697,-126 671.8697,-126 668.8697,-122 592.1303,-122 592.1303,-86 695.8697,-86 695.8697,-122"/>
<text text-anchor="middle" x="644" y="-99.8" font-family="Times,serif" font-size="14.00" fill="#000000">MdIconModule</text>
</g>
<!-- MdIconModule&#45;&gt;NgFbSortableTableModule -->
<g id="edge5" class="edge">
<title>MdIconModule&#45;&gt;NgFbSortableTableModule</title>
<path fill="none" stroke="#000000" d="M644,-122.1061C644,-122.1061 644,-140.991 644,-140.991"/>
<polygon fill="#000000" stroke="#000000" points="640.5001,-140.9909 644,-150.991 647.5001,-140.991 640.5001,-140.9909"/>
</g>
<!-- MdButtonModule -->
<g id="node6" class="node">
<title>MdButtonModule</title>
<polygon fill="#8dd3c7" stroke="#000000" points="574.6123,-122 571.6123,-126 550.6123,-126 547.6123,-122 457.3877,-122 457.3877,-86 574.6123,-86 574.6123,-122"/>
<text text-anchor="middle" x="516" y="-99.8" font-family="Times,serif" font-size="14.00" fill="#000000">MdButtonModule</text>
</g>
<!-- MdButtonModule&#45;&gt;NgFbSortableTableModule -->
<g id="edge6" class="edge">
<title>MdButtonModule&#45;&gt;NgFbSortableTableModule</title>
<path fill="none" stroke="#000000" d="M566.7868,-122.1061C566.7868,-122.1061 566.7868,-140.991 566.7868,-140.991"/>
<polygon fill="#000000" stroke="#000000" points="563.2869,-140.9909 566.7868,-150.991 570.2869,-140.991 563.2869,-140.9909"/>
</g>
<!-- BrowserAnimationsModule -->
<g id="node7" class="node">
<title>BrowserAnimationsModule</title>
<polygon fill="#8dd3c7" stroke="#000000" points="439.3019,-122 436.3019,-126 415.3019,-126 412.3019,-122 266.6981,-122 266.6981,-86 439.3019,-86 439.3019,-122"/>
<text text-anchor="middle" x="353" y="-99.8" font-family="Times,serif" font-size="14.00" fill="#000000">BrowserAnimationsModule</text>
</g>
<!-- BrowserAnimationsModule&#45;&gt;NgFbSortableTableModule -->
<g id="edge7" class="edge">
<title>BrowserAnimationsModule&#45;&gt;NgFbSortableTableModule</title>
<path fill="none" stroke="#000000" d="M396.0181,-122.2396C396.0181,-137.5706 396.0181,-157 396.0181,-157 396.0181,-157 549.0056,-157 549.0056,-157"/>
<polygon fill="#000000" stroke="#000000" points="549.0057,-160.5001 559.0056,-157 549.0056,-153.5001 549.0057,-160.5001"/>
</g>
<!-- CommonModule -->
<g id="node8" class="node">
<title>CommonModule</title>
<polygon fill="#8dd3c7" stroke="#000000" points="248.6681,-122 245.6681,-126 224.6681,-126 221.6681,-122 137.3319,-122 137.3319,-86 248.6681,-86 248.6681,-122"/>
<text text-anchor="middle" x="193" y="-99.8" font-family="Times,serif" font-size="14.00" fill="#000000">CommonModule</text>
</g>
<!-- CommonModule&#45;&gt;NgFbSortableTableModule -->
<g id="edge8" class="edge">
<title>CommonModule&#45;&gt;NgFbSortableTableModule</title>
<path fill="none" stroke="#000000" d="M233.9346,-122.0225C233.9346,-139.3734 233.9346,-163 233.9346,-163 233.9346,-163 549.0342,-163 549.0342,-163"/>
<polygon fill="#000000" stroke="#000000" points="549.0342,-166.5001 559.0342,-163 549.0341,-159.5001 549.0342,-166.5001"/>
</g>
<!-- FormsModule -->
<g id="node9" class="node">
<title>FormsModule</title>
<polygon fill="#8dd3c7" stroke="#000000" points="119.8288,-122 116.8288,-126 95.8288,-126 92.8288,-122 24.1712,-122 24.1712,-86 119.8288,-86 119.8288,-122"/>
<text text-anchor="middle" x="72" y="-99.8" font-family="Times,serif" font-size="14.00" fill="#000000">FormsModule</text>
</g>
<!-- FormsModule&#45;&gt;NgFbSortableTableModule -->
<g id="edge9" class="edge">
<title>FormsModule&#45;&gt;NgFbSortableTableModule</title>
<path fill="none" stroke="#000000" d="M72,-122.1061C72,-141.3391 72,-169 72,-169 72,-169 548.9835,-169 548.9835,-169"/>
<polygon fill="#000000" stroke="#000000" points="548.9835,-172.5001 558.9835,-169 548.9834,-165.5001 548.9835,-172.5001"/>
</g>
<!-- SortableTableComponent  -->
<g id="node11" class="node">
<title>SortableTableComponent </title>
<polygon fill="#fb8072" stroke="#000000" points="1119.8588,-252 956.1412,-252 956.1412,-216 1119.8588,-216 1119.8588,-252"/>
<text text-anchor="middle" x="1038" y="-229.8" font-family="Times,serif" font-size="14.00" fill="#000000">SortableTableComponent </text>
</g>
<!-- NgFbSortableTableModule&#45;&gt;SortableTableComponent  -->
<g id="edge10" class="edge">
<title>NgFbSortableTableModule&#45;&gt;SortableTableComponent </title>
<path fill="none" stroke="#000000" stroke-dasharray="5,2" d="M729.3034,-175C824.065,-175 963.8862,-175 963.8862,-175 963.8862,-175 963.8862,-205.9775 963.8862,-205.9775"/>
<polygon fill="#000000" stroke="#000000" points="960.3863,-205.9774 963.8862,-215.9775 967.3863,-205.9775 960.3863,-205.9774"/>
</g>
<!-- LoadingComponent  -->
<g id="node12" class="node">
<title>LoadingComponent </title>
<polygon fill="#fb8072" stroke="#000000" points="938.9911,-252 807.0089,-252 807.0089,-216 938.9911,-216 938.9911,-252"/>
<text text-anchor="middle" x="873" y="-229.8" font-family="Times,serif" font-size="14.00" fill="#000000">LoadingComponent </text>
</g>
<!-- NgFbSortableTableModule&#45;&gt;LoadingComponent  -->
<g id="edge11" class="edge">
<title>NgFbSortableTableModule&#45;&gt;LoadingComponent </title>
<path fill="none" stroke="#000000" stroke-dasharray="5,2" d="M729.1318,-181C771.906,-181 814.7639,-181 814.7639,-181 814.7639,-181 814.7639,-205.7604 814.7639,-205.7604"/>
<polygon fill="#000000" stroke="#000000" points="811.2639,-205.7604 814.7639,-215.7604 818.2639,-205.7604 811.2639,-205.7604"/>
</g>
<!-- SortableItemDirective  -->
<g id="node13" class="node">
<title>SortableItemDirective </title>
<polygon fill="#fb8072" stroke="#000000" points="788.8928,-252 645.1072,-252 645.1072,-216 788.8928,-216 788.8928,-252"/>
<text text-anchor="middle" x="717" y="-229.8" font-family="Times,serif" font-size="14.00" fill="#000000">SortableItemDirective </text>
</g>
<!-- NgFbSortableTableModule&#45;&gt;SortableItemDirective  -->
<g id="edge12" class="edge">
<title>NgFbSortableTableModule&#45;&gt;SortableItemDirective </title>
<path fill="none" stroke="#000000" stroke-dasharray="5,2" d="M687.018,-187.1061C687.018,-187.1061 687.018,-205.991 687.018,-205.991"/>
<polygon fill="#000000" stroke="#000000" points="683.5181,-205.9909 687.018,-215.991 690.5181,-205.991 683.5181,-205.9909"/>
</g>
<!-- DialogDirective  -->
<g id="node14" class="node">
<title>DialogDirective </title>
<polygon fill="#fb8072" stroke="#000000" points="626.6857,-252 517.3143,-252 517.3143,-216 626.6857,-216 626.6857,-252"/>
<text text-anchor="middle" x="572" y="-229.8" font-family="Times,serif" font-size="14.00" fill="#000000">DialogDirective </text>
</g>
<!-- NgFbSortableTableModule&#45;&gt;DialogDirective  -->
<g id="edge13" class="edge">
<title>NgFbSortableTableModule&#45;&gt;DialogDirective </title>
<path fill="none" stroke="#000000" stroke-dasharray="5,2" d="M592.93,-187.1061C592.93,-187.1061 592.93,-205.991 592.93,-205.991"/>
<polygon fill="#000000" stroke="#000000" points="589.4301,-205.9909 592.93,-215.991 596.4301,-205.991 589.4301,-205.9909"/>
</g>
<!-- InfiniteScrollDirective  -->
<g id="node15" class="node">
<title>InfiniteScrollDirective </title>
<polygon fill="#fb8072" stroke="#000000" points="499.2296,-252 352.7704,-252 352.7704,-216 499.2296,-216 499.2296,-252"/>
<text text-anchor="middle" x="426" y="-229.8" font-family="Times,serif" font-size="14.00" fill="#000000">InfiniteScrollDirective </text>
</g>
<!-- NgFbSortableTableModule&#45;&gt;InfiniteScrollDirective  -->
<g id="edge14" class="edge">
<title>NgFbSortableTableModule&#45;&gt;InfiniteScrollDirective </title>
<path fill="none" stroke="#000000" stroke-dasharray="5,2" d="M558.7124,-181C518.1069,-181 478.2793,-181 478.2793,-181 478.2793,-181 478.2793,-205.7604 478.2793,-205.7604"/>
<polygon fill="#000000" stroke="#000000" points="474.7794,-205.7604 478.2793,-215.7604 481.7794,-205.7604 474.7794,-205.7604"/>
</g>
<!-- PriorityKeysPipe  -->
<g id="node16" class="node">
<title>PriorityKeysPipe </title>
<polygon fill="#fb8072" stroke="#000000" points="334.9292,-252 219.0708,-252 219.0708,-216 334.9292,-216 334.9292,-252"/>
<text text-anchor="middle" x="277" y="-229.8" font-family="Times,serif" font-size="14.00" fill="#000000">PriorityKeysPipe </text>
</g>
<!-- NgFbSortableTableModule&#45;&gt;PriorityKeysPipe  -->
<g id="edge15" class="edge">
<title>NgFbSortableTableModule&#45;&gt;PriorityKeysPipe </title>
<path fill="none" stroke="#000000" stroke-dasharray="5,2" d="M558.7496,-175C457.1382,-175 300.9069,-175 300.9069,-175 300.9069,-175 300.9069,-205.9775 300.9069,-205.9775"/>
<polygon fill="#000000" stroke="#000000" points="297.407,-205.9774 300.9069,-215.9775 304.407,-205.9775 297.407,-205.9774"/>
</g>
</g>
</svg>
