<?xml version="1.0" encoding="UTF-8" standalone="no"?>
<!DOCTYPE svg PUBLIC "-//W3C//DTD SVG 1.1//EN"
 "http://www.w3.org/Graphics/SVG/1.1/DTD/svg11.dtd">
<!-- Generated by graphviz version 2.40.1 (20161225.0304)
 -->
<!-- Title: dependencies Pages: 1 -->
<svg width="957pt" height="284pt"
 viewBox="0.00 0.00 957.00 284.00" xmlns="http://www.w3.org/2000/svg" xmlns:xlink="http://www.w3.org/1999/xlink">
<g id="graph0" class="graph" transform="scale(1 1) rotate(0) translate(4 280)">
<title>dependencies</title>
<polygon fill="#ffffff" stroke="transparent" points="-4,4 -4,-280 953,-280 953,4 -4,4"/>
<text text-anchor="start" x="453.5091" y="-42.4" font-family="sans-serif" font-weight="bold" font-size="14.00" fill="#000000">Legend</text>
<polygon fill="#ffffb3" stroke="transparent" points="240.5,-10 240.5,-30 260.5,-30 260.5,-10 240.5,-10"/>
<text text-anchor="start" x="264.129" y="-15.4" font-family="sans-serif" font-size="14.00" fill="#000000"> &#160;Declarations</text>
<polygon fill="#8dd3c7" stroke="transparent" points="353.5,-10 353.5,-30 373.5,-30 373.5,-10 353.5,-10"/>
<text text-anchor="start" x="377.2251" y="-15.4" font-family="sans-serif" font-size="14.00" fill="#000000"> &#160;Module</text>
<polygon fill="#80b1d3" stroke="transparent" points="439.5,-10 439.5,-30 459.5,-30 459.5,-10 439.5,-10"/>
<text text-anchor="start" x="463.2812" y="-15.4" font-family="sans-serif" font-size="14.00" fill="#000000"> &#160;Bootstrap</text>
<polygon fill="#fdb462" stroke="transparent" points="536.5,-10 536.5,-30 556.5,-30 556.5,-10 536.5,-10"/>
<text text-anchor="start" x="560.1732" y="-15.4" font-family="sans-serif" font-size="14.00" fill="#000000"> &#160;Providers</text>
<polygon fill="#fb8072" stroke="transparent" points="632.5,-10 632.5,-30 652.5,-30 652.5,-10 632.5,-10"/>
<text text-anchor="start" x="656.2258" y="-15.4" font-family="sans-serif" font-size="14.00" fill="#000000"> &#160;Exports</text>
<g id="clust1" class="cluster">
<title>cluster_NgFbSortableTableModule</title>
<polygon fill="none" stroke="#000000" stroke-dasharray="1,5" points="8,-70 8,-268 941,-268 941,-70 8,-70"/>
</g>
<g id="clust3" class="cluster">
<title>cluster_NgFbSortableTableModule_imports</title>
<polygon fill="none" stroke="#000000" points="192,-78 192,-130 805,-130 805,-78 192,-78"/>
</g>
<g id="clust4" class="cluster">
<title>cluster_NgFbSortableTableModule_exports</title>
<polygon fill="none" stroke="#000000" points="16,-208 16,-260 933,-260 933,-208 16,-208"/>
</g>
<!-- MaterialModule.forRoot() -->
<g id="node1" class="node">
<title>MaterialModule.forRoot()</title>
<polygon fill="#8dd3c7" stroke="#000000" points="796.8406,-122 793.8406,-126 772.8406,-126 769.8406,-122 633.1594,-122 633.1594,-86 796.8406,-86 796.8406,-122"/>
<text text-anchor="middle" x="715" y="-99.8" font-family="Times,serif" font-size="14.00" fill="#000000">MaterialModule.forRoot()</text>
</g>
<!-- NgFbSortableTableModule -->
<g id="node5" class="node">
<title>NgFbSortableTableModule</title>
<polygon fill="#8dd3c7" stroke="#000000" points="533.965,-187 530.965,-191 509.965,-191 506.965,-187 364.035,-187 364.035,-151 533.965,-151 533.965,-187"/>
<text text-anchor="middle" x="449" y="-164.8" font-family="Times,serif" font-size="14.00" fill="#000000">NgFbSortableTableModule</text>
</g>
<!-- MaterialModule.forRoot()&#45;&gt;NgFbSortableTableModule -->
<g id="edge1" class="edge">
<title>MaterialModule.forRoot()&#45;&gt;NgFbSortableTableModule</title>
<path fill="none" stroke="#000000" d="M688.5375,-122.027C688.5375,-138.3976 688.5375,-160 688.5375,-160 688.5375,-160 544.1264,-160 544.1264,-160"/>
<polygon fill="#000000" stroke="#000000" points="544.1265,-156.5001 534.1264,-160 544.1264,-163.5001 544.1265,-156.5001"/>
</g>
<!-- BrowserAnimationsModule -->
<g id="node2" class="node">
<title>BrowserAnimationsModule</title>
<polygon fill="#8dd3c7" stroke="#000000" points="615.3019,-122 612.3019,-126 591.3019,-126 588.3019,-122 442.6981,-122 442.6981,-86 615.3019,-86 615.3019,-122"/>
<text text-anchor="middle" x="529" y="-99.8" font-family="Times,serif" font-size="14.00" fill="#000000">BrowserAnimationsModule</text>
</g>
<!-- BrowserAnimationsModule&#45;&gt;NgFbSortableTableModule -->
<g id="edge2" class="edge">
<title>BrowserAnimationsModule&#45;&gt;NgFbSortableTableModule</title>
<path fill="none" stroke="#000000" d="M488.4159,-122.1061C488.4159,-122.1061 488.4159,-140.991 488.4159,-140.991"/>
<polygon fill="#000000" stroke="#000000" points="484.9159,-140.9909 488.4159,-150.991 491.9159,-140.991 484.9159,-140.9909"/>
</g>
<!-- CommonModule -->
<g id="node3" class="node">
<title>CommonModule</title>
<polygon fill="#8dd3c7" stroke="#000000" points="424.6681,-122 421.6681,-126 400.6681,-126 397.6681,-122 313.3319,-122 313.3319,-86 424.6681,-86 424.6681,-122"/>
<text text-anchor="middle" x="369" y="-99.8" font-family="Times,serif" font-size="14.00" fill="#000000">CommonModule</text>
</g>
<!-- CommonModule&#45;&gt;NgFbSortableTableModule -->
<g id="edge3" class="edge">
<title>CommonModule&#45;&gt;NgFbSortableTableModule</title>
<path fill="none" stroke="#000000" d="M394.4257,-122.1061C394.4257,-122.1061 394.4257,-140.991 394.4257,-140.991"/>
<polygon fill="#000000" stroke="#000000" points="390.9257,-140.9909 394.4257,-150.991 397.9257,-140.991 390.9257,-140.9909"/>
</g>
<!-- FormsModule -->
<g id="node4" class="node">
<title>FormsModule</title>
<polygon fill="#8dd3c7" stroke="#000000" points="295.8288,-122 292.8288,-126 271.8288,-126 268.8288,-122 200.1712,-122 200.1712,-86 295.8288,-86 295.8288,-122"/>
<text text-anchor="middle" x="248" y="-99.8" font-family="Times,serif" font-size="14.00" fill="#000000">FormsModule</text>
</g>
<!-- FormsModule&#45;&gt;NgFbSortableTableModule -->
<g id="edge4" class="edge">
<title>FormsModule&#45;&gt;NgFbSortableTableModule</title>
<path fill="none" stroke="#000000" d="M248,-122.027C248,-138.3976 248,-160 248,-160 248,-160 353.7579,-160 353.7579,-160"/>
<polygon fill="#000000" stroke="#000000" points="353.7579,-163.5001 363.7579,-160 353.7579,-156.5001 353.7579,-163.5001"/>
</g>
<!-- SortableTableComponent  -->
<g id="node6" class="node">
<title>SortableTableComponent </title>
<polygon fill="#fb8072" stroke="#000000" points="924.8588,-252 761.1412,-252 761.1412,-216 924.8588,-216 924.8588,-252"/>
<text text-anchor="middle" x="843" y="-229.8" font-family="Times,serif" font-size="14.00" fill="#000000">SortableTableComponent </text>
</g>
<!-- NgFbSortableTableModule&#45;&gt;SortableTableComponent  -->
<g id="edge5" class="edge">
<title>NgFbSortableTableModule&#45;&gt;SortableTableComponent </title>
<path fill="none" stroke="#000000" stroke-dasharray="5,2" d="M533.982,-169C631.7573,-169 778.9955,-169 778.9955,-169 778.9955,-169 778.9955,-205.8939 778.9955,-205.8939"/>
<polygon fill="#000000" stroke="#000000" points="775.4955,-205.8938 778.9955,-215.8939 782.4955,-205.8939 775.4955,-205.8938"/>
</g>
<!-- LoadingComponent  -->
<g id="node7" class="node">
<title>LoadingComponent </title>
<polygon fill="#fb8072" stroke="#000000" points="743.9911,-252 612.0089,-252 612.0089,-216 743.9911,-216 743.9911,-252"/>
<text text-anchor="middle" x="678" y="-229.8" font-family="Times,serif" font-size="14.00" fill="#000000">LoadingComponent </text>
</g>
<!-- NgFbSortableTableModule&#45;&gt;LoadingComponent  -->
<g id="edge6" class="edge">
<title>NgFbSortableTableModule&#45;&gt;LoadingComponent </title>
<path fill="none" stroke="#000000" stroke-dasharray="5,2" d="M534.0535,-178C578.7022,-178 624.2404,-178 624.2404,-178 624.2404,-178 624.2404,-205.973 624.2404,-205.973"/>
<polygon fill="#000000" stroke="#000000" points="620.7404,-205.973 624.2404,-215.973 627.7404,-205.973 620.7404,-205.973"/>
</g>
<!-- SortableItemDirective  -->
<g id="node8" class="node">
<title>SortableItemDirective </title>
<polygon fill="#fb8072" stroke="#000000" points="593.8928,-252 450.1072,-252 450.1072,-216 593.8928,-216 593.8928,-252"/>
<text text-anchor="middle" x="522" y="-229.8" font-family="Times,serif" font-size="14.00" fill="#000000">SortableItemDirective </text>
</g>
<!-- NgFbSortableTableModule&#45;&gt;SortableItemDirective  -->
<g id="edge7" class="edge">
<title>NgFbSortableTableModule&#45;&gt;SortableItemDirective </title>
<path fill="none" stroke="#000000" stroke-dasharray="5,2" d="M492.0181,-187.1061C492.0181,-187.1061 492.0181,-205.991 492.0181,-205.991"/>
<polygon fill="#000000" stroke="#000000" points="488.5181,-205.9909 492.0181,-215.991 495.5181,-205.991 488.5181,-205.9909"/>
</g>
<!-- DialogDirective  -->
<g id="node9" class="node">
<title>DialogDirective </title>
<polygon fill="#fb8072" stroke="#000000" points="431.6857,-252 322.3143,-252 322.3143,-216 431.6857,-216 431.6857,-252"/>
<text text-anchor="middle" x="377" y="-229.8" font-family="Times,serif" font-size="14.00" fill="#000000">DialogDirective </text>
</g>
<!-- NgFbSortableTableModule&#45;&gt;DialogDirective  -->
<g id="edge8" class="edge">
<title>NgFbSortableTableModule&#45;&gt;DialogDirective </title>
<path fill="none" stroke="#000000" stroke-dasharray="5,2" d="M397.9301,-187.1061C397.9301,-187.1061 397.9301,-205.991 397.9301,-205.991"/>
<polygon fill="#000000" stroke="#000000" points="394.4301,-205.9909 397.9301,-215.991 401.4301,-205.991 394.4301,-205.9909"/>
</g>
<!-- InfiniteScrollDirective  -->
<g id="node10" class="node">
<title>InfiniteScrollDirective </title>
<polygon fill="#fb8072" stroke="#000000" points="304.2296,-252 157.7704,-252 157.7704,-216 304.2296,-216 304.2296,-252"/>
<text text-anchor="middle" x="231" y="-229.8" font-family="Times,serif" font-size="14.00" fill="#000000">InfiniteScrollDirective </text>
</g>
<!-- NgFbSortableTableModule&#45;&gt;InfiniteScrollDirective  -->
<g id="edge9" class="edge">
<title>NgFbSortableTableModule&#45;&gt;InfiniteScrollDirective </title>
<path fill="none" stroke="#000000" stroke-dasharray="5,2" d="M363.9911,-178C330.5051,-178 299.8894,-178 299.8894,-178 299.8894,-178 299.8894,-205.973 299.8894,-205.973"/>
<polygon fill="#000000" stroke="#000000" points="296.3895,-205.973 299.8894,-215.973 303.3895,-205.973 296.3895,-205.973"/>
</g>
<!-- PriorityKeysPipe  -->
<g id="node11" class="node">
<title>PriorityKeysPipe </title>
<polygon fill="#fb8072" stroke="#000000" points="139.9292,-252 24.0708,-252 24.0708,-216 139.9292,-216 139.9292,-252"/>
<text text-anchor="middle" x="82" y="-229.8" font-family="Times,serif" font-size="14.00" fill="#000000">PriorityKeysPipe </text>
</g>
<!-- NgFbSortableTableModule&#45;&gt;PriorityKeysPipe  -->
<g id="edge10" class="edge">
<title>NgFbSortableTableModule&#45;&gt;PriorityKeysPipe </title>
<path fill="none" stroke="#000000" stroke-dasharray="5,2" d="M363.8804,-169C255.4648,-169 82,-169 82,-169 82,-169 82,-205.8939 82,-205.8939"/>
<polygon fill="#000000" stroke="#000000" points="78.5001,-205.8938 82,-215.8939 85.5001,-205.8939 78.5001,-205.8938"/>
</g>
</g>
</svg>
